:FULLY-SPECIFIED
:FORCE-ALL-JOINTS-BE-3DOF
:DEGREES
883
root 3.85195 16.5305 30.5312 -10.8246 23.6768 359.35
lfemur -15.8095 19.9983 -19.0116
ltibia 40.4913 0 0
lfoot -12.9326 0.0690648 0
ltoes -1.37978 0 0
rfemur -80.7132 -24.4467 36.5168
rtibia 101.126 0 0
rfoot 19.264 26.205 0
rtoes -8.14353 0 0
lowerback 15.0059 -4.01209 -6.64789
upperback 4.97444 -6.28636 -2.38034
thorax -2.64296 -3.11384 2.26165
lowerneck -7.71871 -3.24517 1.71638
upperneck 4.65939 -4.84264 4.94114
head 2.93726 -2.18998 1.06474
lclavicle -3.12092e-14 -4.77083e-15 0
lhumerus -33.0312 -40.5423 88.3441
lradius 60.5977 0 0
lwrist 19.6497 0 0
lhand 25.8347 11.8689 0
lfingers 7.12502 0 0
lthumb 49.9264 33.1302 0
rclavicle -3.12092e-14 -4.77083e-15 0
rhumerus -49.2556 -29.6742 -46.9493
rradius 72.2992 0 0
rwrist -23.3678 0 0
rhand -47.7649 -54.4874 0
rfingers 7.12502 0 0
rthumb -20.4424 -803.431 0
884
root 3.85028 16.5294 30.5396 -10.7582 23.6581 -0.638841
lfemur -15.8735 20.0277 -18.9899
ltibia 40.5523 -0 0
lfoot -12.9472 0.0579514 0.000213775
ltoes -1.30045 0 0
rfemur -80.3256 -24.4866 36.2322
rtibia 100.953 -0 0
rfoot 19.1716 25.8836 0.0418698
rtoes -7.83492 0 0
lowerback 14.9311 -4.0003 -6.62479
upperback 4.94419 -6.2627 -2.37922
thorax -2.63605 -3.10221 2.24393
lowerneck -7.71437 -3.26754 1.69298
upperneck 4.65762 -4.86997 4.94173
head 2.93758 -2.20408 1.06772
lclavicle -3.10184e-14 -4.59276e-15 -4.47071e-32
lhumerus -33.1595 -40.5391 88.4924
lradius 60.5979 -0 0
lwrist 19.6071 0 0
lhand 25.8611 11.9019 0.00114786
lfingers 7.12502 -0 0
lthumb 49.9504 33.1492 0.000598908
rclavicle -3.10184e-14 -4.59276e-15 -4.47071e-32
rhumerus -49.0849 -29.4083 -47.3354
rradius 72.5767 -0 0
rwrist -23.277 0 0
rhand -47.3932 -54.1929 0.169714
rfingers 7.12502 -0 0
rthumb -20.0881 -83.1161 0.173096
885
root 3.84548 16.5263 30.5636 -10.5679 23.6045 -0.606965
lfemur -16.0571 20.1122 -18.9277
ltibia 40.7272 -0 0
lfoot -12.9891 0.0260678 0.000811347
ltoes -1.07287 0 0
rfemur -79.2119 -24.5913 35.4138
rtibia 100.457 -0 0
rfoot 18.9052 24.9612 0.159119
rtoes -6.94945 0 0
lowerback 14.7165 -3.96632 -6.5586
upperback 4.85742 -6.19483 -2.37608
thorax -2.61624 -3.06884 2.19312
lowerneck -7.70187 -3.33171 1.62583
upperneck 4.65254 -4.94838 4.94341
head 2.93848 -2.24453 1.07628
lclavicle -3.04712e-14 -4.0819e-15 -1.69675e-31
lhumerus -33.5273 -40.5286 88.9178
lradius 60.5986 -0 0
lwrist 19.4849 0 0
lhand 25.9368 11.9967 0.0043565
lfingers 7.12502 -0 0
lthumb 50.0191 33.2036 0.00227313
rclavicle -3.04712e-14 -4.0819e-15 -1.69675e-31
rhumerus -48.6089 -28.6401 -48.4327
rradius 73.373 -0 0
rwrist -23.0166 0 0
rhand -46.3219 -53.342 0.645954
rfingers 7.12502 -0 0
rthumb -19.0662 -82.2069 0.658834
886
root 3.83789 16.5215 30.6016 -10.2669 23.5195 -0.556937
lfemur -16.3477 20.2463 -18.8298
ltibia 41.004 -0 0
lfoot -13.0555 -0.0244011 0.00170955
ltoes -0.71266 0 0
rfemur -77.4443 -24.7274 34.113
rtibia 99.6722 -0 0
rfoot 18.4798 23.4999 0.335912
rtoes -5.54776 0 0
lowerback 14.377 -3.91203 -6.45411
upperback 4.72012 -6.0874 -2.37133
thorax -2.58495 -3.01597 2.1127
lowerneck -7.68192 -3.43326 1.51949
upperneck 4.64449 -5.0725 4.94609
head 2.9399 -2.30856 1.08983
lclavicle -2.9605e-14 -3.27328e-15 -3.57507e-31
lhumerus -34.1092 -40.5077 89.5908
lradius 60.5996 -0 0
lwrist 19.2915 0 0
lhand 26.0565 12.1467 0.00917942
lfingers 7.12502 -0 0
lthumb 50.1279 33.2899 0.00478977
rclavicle -2.9605e-14 -3.27328e-15 -3.57507e-31
rhumerus -47.8966 -27.4083 -50.1388
rradius 74.6335 -0 0
rwrist -22.6043 0 0
rhand -44.6118 -51.9771 1.36686
rfingers 7.12502 -0 0
rthumb -17.4331 -80.7501 1.39414
887
root 3.82783 16.515 30.6519 -9.86843 23.4064 -0.491455
lfemur -16.7327 20.4247 -18.7011
ltibia 41.3707 -0 0
lfoot -13.1434 -0.0912704 0.00280959
ltoes -0.235419 0 0
rfemur -75.0955 -24.8514 32.3817
rtibia 98.6321 -0 0
rfoot 17.9094 21.5618 0.553308
rtoes -3.69075 0 0
lowerback 13.9274 -3.83916 -6.31618
upperback 4.53825 -5.94504 -2.36542
thorax -2.54361 -2.94586 2.00621
lowerneck -7.6552 -3.56775 1.37853
upperneck 4.63382 -5.23694 4.94967
head 2.94176 -2.3934 1.10778
lclavicle -2.84573e-14 -2.20193e-15 -5.8754e-31
lhumerus -34.8794 -40.472 90.4817
lradius 60.601 -0 0
lwrist 19.0353 0 0
lhand 26.2153 12.3454 0.0150863
lfingers 7.12502 -0 0
lthumb 50.272 33.4041 0.00787208
rclavicle -2.84573e-14 -2.20193e-15 -5.8754e-31
rhumerus -47.0279 -25.7489 -52.3444
rradius 76.3034 -0 0
rwrist -22.0582 0 0
rhand -42.3194 -50.136 2.25827
rfingers 7.12502 -0 0
rthumb -15.2406 -78.788 2.30341
888
root 3.81563 16.5071 30.713 -9.38597 23.2688 -0.41328
lfemur -17.1996 20.642 -18.5466
ltibia 41.8155 -0 0
lfoot -13.25 -0.172355 0.0040058
ltoes 0.343253 -0 0
rfemur -72.2413 -24.915 30.2756
rtibia 97.3708 -0 0
rfoot 17.2084 19.209 0.790828
rtoes -1.43906 0 0
lowerback 13.3825 -3.74935 -6.14973
upperback 4.31781 -5.77239 -2.35888
thorax -2.49367 -2.86075 1.87716
lowerneck -7.62234 -3.73074 1.20749
upperneck 4.62085 -5.43635 4.95406
head 2.94397 -2.49627 1.12955
lclavicle -2.70657e-14 -9.02887e-16 -8.37677e-31
lhumerus -35.8114 -40.4166 91.5602
lradius 60.6027 -0 0
lwrist 18.7246 0 0
lhand 26.4078 12.5864 0.0215092
lfingers 7.12502 -0 0
lthumb 50.4468 33.5426 0.0112241
rclavicle -2.70657e-14 -9.02887e-16 -8.37677e-31
rhumerus -46.0845 -23.6991 -54.9423
rradius 78.3283 -0 0
rwrist -21.396 0 0
rhand -39.501 -47.8561 3.23859
rfingers 7.12502 -0 0
rthumb -12.54 -76.3623 3.30342
889
root 3.80162 16.4981 30.7831 -8.83282 23.11 -0.325168
lfemur -17.7358 20.8931 -18.3712
ltibia 42.3261 -0 0
lfoot -13.3724 -0.265469 0.00519335
ltoes 1.00776 -0 0
rfemur -68.963 -24.8706 27.856
rtibia 95.9226 -0 0
rfoot 16.3922 16.5038 1.02779
rtoes 1.14658 -0 0
lowerback 12.7571 -3.64427 -5.95967
upperback 4.06478 -5.57411 -2.35219
thorax -2.43655 -2.76287 1.72908
lowerneck -7.58401 -3.91779 1.01092
upperneck 4.60594 -5.66533 4.95915
head 2.94647 -2.6144 1.15454
lclavicle -2.54678e-14 5.88825e-16 -1.086e-30
lhumerus -36.8786 -40.3365 92.7957
lradius 60.6046 -0 0
lwrist 18.3678 0 0
lhand 26.6288 12.8632 0.0278868
lfingers 7.12502 -0 0
lthumb 50.6476 33.7017 0.014552
rclavicle -2.54678e-14 5.88825e-16 -1.086e-30
rhumerus -45.1428 -21.3009 -57.8328
rradius 80.6534 -0 0
rwrist -20.6353 0 0
rhand -36.2158 -45.1793 4.22349
rfingers 7.12502 -0 0
rthumb -9.38623 -73.519 4.3082
890
root 3.78613 16.4882 30.8606 -8.22226 22.9336 -0.229805
lfemur -18.3289 21.1725 -18.1798
ltibia 42.8908 -0 0
lfoot -13.5078 -0.368427 0.00627482
ltoes 1.74267 -0 0
rfemur -65.3476 -24.6757 25.1915
rtibia 94.3214 -0 0
rfoot 15.4777 13.5088 1.2446
rtoes 4.00547 -0 0
lowerback 12.066 -3.52567 -5.75086
upperback 3.78512 -5.35484 -2.34581
thorax -2.3737 -2.65448 1.56546
lowerneck -7.54086 -4.12446 0.793369
upperneck 4.58943 -5.91852 4.96485
head 2.94917 -2.74501 1.18216
lclavicle -2.37009e-14 2.23817e-15 -1.31213e-30
lhumerus -38.0542 -40.2275 94.1575
lradius 60.6067 -0 0
lwrist 17.9733 0 0
lhand 26.8733 13.1693 0.033695
lfingers 7.12502 -0 0
lthumb 50.8695 33.8776 0.0175827
rclavicle -2.37009e-14 2.23817e-15 -1.31213e-30
rhumerus -44.268 -18.6028 -60.9289
rradius 83.2243 -0 0
rwrist -19.7944 0 0
rhand -32.5293 -42.1551 5.13086
rfingers 7.12502 -0 0
rthumb -5.84086 -70.3116 5.23396
891
root 3.76949 16.4775 30.9439 -7.56754 22.743 -0.129768
lfemur -18.9662 21.4747 -17.9773
ltibia 43.4974 -0 0
lfoot -13.6532 -0.479042 0.00716566
ltoes 2.53206 -0 0
rfemur -61.488 -24.2973 22.3566
rtibia 92.6011 -0 0
rfoot 14.4841 10.2875 1.42391
rtoes 7.07688 -0 0
lowerback 11.3243 -3.39548 -5.52821
upperback 3.48481 -5.11923 -2.34017
thorax -2.30652 -2.53783 1.38984
lowerneck -7.49361 -4.34631 0.559403
upperneck 4.57165 -6.19053 4.97106
head 2.95201 -2.88533 1.21184
lclavicle -2.18028e-14 4.01013e-15 -1.49839e-30
lhumerus -39.3107 -40.0868 95.6141
lradius 60.609 -0 0
lwrist 17.5494 0 0
lhand 27.136 13.4981 0.0384798
lfingers 7.12502 -0 0
lthumb 51.108 34.0667 0.0200793
rclavicle -2.18028e-14 4.01013e-15 -1.49839e-30
rhumerus -43.5124 -15.6598 -64.1572
rradius 85.9863 -0 0
rwrist -18.8909 0 0
rhand -28.5155 -38.8436 5.88602
rfingers 7.12502 -0 0
rthumb -1.97489 -66.8038 6.00448
892
root 3.75202 16.4662 31.0313 -6.88181 22.5418 -0.0274752
lfemur -19.6351 21.7941 -17.7682
ltibia 44.1341 -0 0
lfoot -13.8058 -0.595126 0.00779862
ltoes 3.36052 -0 0
rfemur -57.4797 -23.7153 19.4296
rtibia 90.7958 -0 0
rfoot 13.4321 6.90403 1.55173
rtoes 10.3001 -0 0
lowerback 10.5465 -3.25577 -5.29642
upperback 3.16979 -4.87195 -2.33558
thorax -2.23642 -2.41519 1.20569
lowerneck -7.44304 -4.57892 0.313595
upperneck 4.55295 -6.47598 4.97767
head 2.9549 -3.03259 1.24298
lclavicle -1.98108e-14 5.86966e-15 -1.63074e-30
lhumerus -40.6207 -39.913 97.1345
lradius 60.6114 -0 0
lwrist 17.1046 0 0
lhand 27.4117 13.8432 0.0418796
lfingers 7.12502 -0 0
lthumb 51.3583 34.265 0.0218533
rclavicle -1.98108e-14 5.86966e-15 -1.63074e-30
rhumerus -42.9136 -12.5332 -67.4573
rradius 88.8848 -0 0
rwrist -17.9429 0 0
rhand -24.2586 -35.316 6.42693
rfingers 7.12502 -0 0
rthumb 2.13023 -63.0706 6.55644
893
root 3.73406 16.4547 31.1212 -6.17813 22.3338 0.0748334
lfemur -20.3232 22.1248 -17.557
ltibia 44.7887 -0 0
lfoot -13.9627 -0.714492 0.00812704
ltoes 4.21235 -0 0
rfemur -53.4186 -22.9249 16.489
rtibia 88.9395 -0 0
rfoot 12.3445 3.42291 1.61818
rtoes 13.6144 -0 0
lowerback 9.74744 -3.10885 -5.06011
upperback 2.84601 -4.61765 -2.33228
thorax -2.16476 -2.28885 1.01651
lowerneck -7.38997 -4.81789 0.0605385
upperneck 4.53367 -6.7695 4.98458
head 2.95779 -3.18402 1.275
lclavicle -1.77625e-14 7.78174e-15 -1.6994e-30
lhumerus -41.9572 -39.7067 98.6878
lradius 60.6139 -0 0
lwrist 16.6473 0 0
lhand 27.6952 14.1981 0.0436437
lfingers 7.12502 -0 0
lthumb 51.6156 34.469 0.0227738
rclavicle -1.77625e-14 7.78174e-15 -1.6994e-30
rhumerus -42.4956 -9.28928 -70.7798
rradius 91.8652 -0 0
rwrist -16.968 0 0
rhand -19.8513 -31.654 6.70903
rfingers 7.12502 -0 0
rthumb 6.38345 -59.1974 6.84433
